<?xml version="1.0" encoding="UTF-8" standalone="no"?>
<svg
   version="1.1"
   viewBox="0 0 699.99998 358.77939"
   width="700"
   height="358.77939"
   id="svg126"
   sodipodi:docname="simulation_high_level_overview.svg"
   xmlns:inkscape="http://www.inkscape.org/namespaces/inkscape"
   xmlns:sodipodi="http://sodipodi.sourceforge.net/DTD/sodipodi-0.dtd"
   xmlns="http://www.w3.org/2000/svg"
   xmlns:svg="http://www.w3.org/2000/svg">
  <sodipodi:namedview
     id="namedview126"
     pagecolor="#ffffff"
     bordercolor="#000000"
     borderopacity="0.25"
     inkscape:showpageshadow="2"
     inkscape:pageopacity="0.0"
     inkscape:pagecheckerboard="0"
     inkscape:deskcolor="#d1d1d1" />
  <!-- svg-source:excalidraw -->
  <defs
     id="defs1">
    <style
       class="style-fonts"
       id="style1">&#10;      @font-face {&#10;        font-family: &quot;Virgil&quot;;&#10;        src: url(&quot;https://excalidraw.com/Virgil.woff2&quot;);&#10;      }&#10;      @font-face {&#10;        font-family: &quot;Cascadia&quot;;&#10;        src: url(&quot;https://excalidraw.com/Cascadia.woff2&quot;);&#10;      }&#10;    </style>
  </defs>
  <rect
     x="0"
     y="0"
     width="700"
     height="358.77939"
     fill="#ffffff"
     id="rect1"
     style="stroke-width:0.618795" />
  <g
     stroke-linecap="round"
     transform="matrix(0.61879528,0,0,0.61879528,23.531407,114.29673)"
     id="g2">
    <path
       d="M 0,0 H 600.96 V 86.64 H 0"
       stroke="none"
       stroke-width="0"
       fill="#ced4da"
       id="path1" />
    <path
       d="M 0,0 C 120.64,0 241.29,0 600.96,0 M 0,0 c 179.46,0 358.92,0 600.96,0 m 0,0 c 0,25.73 0,51.46 0,86.64 m 0,-86.64 c 0,28.68 0,57.36 0,86.64 m 0,0 c -129.03,0 -258.07,0 -600.96,0 m 600.96,0 c -239.36,0 -478.71,0 -600.96,0 m 0,0 C 0,55.09 0,23.55 0,0 M 0,86.64 C 0,53.38 0,20.12 0,0"
       stroke="#868e96"
       stroke-width="1"
       fill="none"
       id="path2" />
  </g>
  <g
     stroke-linecap="round"
     transform="matrix(0.61879528,0,0,0.61879528,25.122357,274.15112)"
     id="g4">
    <path
       d="M 0,0 H 598.68 V 85.67 H 0"
       stroke="none"
       stroke-width="0"
       fill="#f8f9fa"
       id="path3" />
    <path
       d="M 0,0 C 164.86,0 329.72,0 598.68,0 M 0,0 c 226.99,0 453.98,0 598.68,0 m 0,0 c 0,19.25 0,38.5 0,85.67 m 0,-85.67 c 0,25.77 0,51.55 0,85.67 m 0,0 c -208.61,0 -417.23,0 -598.68,0 m 598.68,0 c -167.88,0 -335.75,0 -598.68,0 m 0,0 C 0,52.66 0,19.64 0,0 M 0,85.67 C 0,58.74 0,31.81 0,0"
       stroke="#868e96"
       stroke-width="1"
       fill="none"
       id="path4" />
  </g>
  <g
     stroke-linecap="round"
     transform="matrix(0.61879528,0,0,0.61879528,24.815407,192.9803)"
     id="g6">
    <path
       d="M 0,0 H 599.66 V 85.47 H 0"
       stroke="none"
       stroke-width="0"
       fill="#f8f9fa"
       id="path5" />
    <path
       d="M 0,0 C 220.51,0 441.03,0 599.66,0 M 0,0 c 187.23,0 374.47,0 599.66,0 m 0,0 c 0,18.67 0,37.35 0,85.47 m 0,-85.47 c 0,27.25 0,54.49 0,85.47 m 0,0 c -207.2,0 -414.4,0 -599.66,0 m 599.66,0 c -223.98,0 -447.96,0 -599.66,0 m 0,0 C 0,62.83 0,40.19 0,0 M 0,85.47 C 0,52.58 0,19.69 0,0"
       stroke="#868e96"
       stroke-width="1"
       fill="none"
       id="path6" />
  </g>
  <g
     stroke-linecap="round"
     transform="matrix(0.61879528,0,0,0.61879528,6.1879567,6.1879468)"
     id="g7">
    <path
       d="M 32,0 C 257.45,0 482.9,0 1079.23,0 M 32,0 c 218.02,0 436.04,0 1047.23,0 m 0,0 c 21.33,0 32,10.67 32,32 m -32,-32 c 21.33,0 32,10.67 32,32 m 0,0 c 0,194.41 0,388.82 0,495.8 m 0,-495.8 c 0,147.51 0,295.01 0,495.8 m 0,0 c 0,21.34 -10.67,32 -32,32 m 32,-32 c 0,21.34 -10.67,32 -32,32 m 0,0 c -234.67,0 -469.35,0 -1047.23,0 m 1047.23,0 c -218.3,0 -436.6,0 -1047.23,0 m 0,0 c -21.33,0 -32,-10.66 -32,-32 m 32,32 c -21.33,0 -32,-10.66 -32,-32 m 0,0 C 0,346.61 0,165.43 0,32 M 0,527.8 C 0,368.09 0,208.37 0,32 m 0,0 C 0,10.67 10.67,0 32,0 M 0,32 C 0,10.67 10.67,0 32,0"
       stroke="#1e1e1e"
       stroke-width="2"
       fill="none"
       id="path7" />
  </g>
  <g
     stroke-linecap="round"
     transform="matrix(0.61879528,0,0,0.61879528,478.89465,23.035017)"
     id="g9">
    <path
       d="M 0,0 H 278.17 V 508.73 H 0"
       stroke="none"
       stroke-width="0"
       fill="#fff4e6"
       id="path8" />
    <path
       d="M 0,0 C 80.41,0 160.82,0 278.17,0 M 0,0 c 59.28,0 118.56,0 278.17,0 m 0,0 c 0,123.24 0,246.48 0,508.73 M 278.17,0 c 0,172.08 0,344.16 0,508.73 m 0,0 c -90.12,0 -180.24,0 -278.17,0 m 278.17,0 c -83.14,0 -166.28,0 -278.17,0 m 0,0 C 0,394.73 0,280.73 0,0 M 0,508.73 C 0,402.68 0,296.63 0,0"
       stroke="#868e96"
       stroke-width="1"
       fill="none"
       id="path9" />
  </g>
  <g
     stroke-linecap="round"
     transform="matrix(0.61879528,0,0,0.61879528,23.461447,21.423537)"
     id="g11">
    <path
       d="M 0,0 H 706.22 V 79.17 H 0"
       stroke="none"
       stroke-width="0"
       fill="#f8f1ee"
       id="path10" />
    <path
       d="M 0,0 C 256.34,0 512.68,0 706.22,0 M 0,0 c 263.32,0 526.64,0 706.22,0 m 0,0 c 0,26.02 0,52.03 0,79.17 m 0,-79.17 c 0,27.38 0,54.77 0,79.17 m 0,0 c -146.11,0 -292.22,0 -706.22,0 m 706.22,0 c -253.66,0 -507.31,0 -706.22,0 m 0,0 C 0,52.41 0,25.64 0,0 M 0,79.17 C 0,49.91 0,20.66 0,0"
       stroke="#868e96"
       stroke-width="1"
       fill="none"
       id="path11" />
  </g>
  <g
     transform="matrix(0.61879528,0,0,0.61879528,66.995317,38.801607)"
     id="g12">
    <text
       x="282.75833"
       y="0"
       font-family="Helvetica, 'Segoe UI Emoji'"
       font-size="20px"
       fill="#343a40"
       text-anchor="middle"
       style="white-space:pre"
       direction="ltr"
       dominant-baseline="text-before-edge"
       id="text11">                    e.g. climate variables, land-use, pollution, habitat ...</text>
  </g>
  <g
     transform="matrix(0.61879528,0,0,0.61879528,31.114707,39.567257)"
     id="g13">
    <text
       x="0"
       y="0"
       font-family="Cascadia, 'Segoe UI Emoji'"
       font-size="20px"
       fill="#1e1e1e"
       text-anchor="start"
       style="white-space:pre"
       direction="ltr"
       dominant-baseline="text-before-edge"
       id="text12">environment</text>
  </g>
  <g
     stroke-linecap="round"
     transform="matrix(0.61879528,0,0,0.61879528,293.09942,196.85345)"
     id="g14">
    <path
       d="M 18.42,0 C 58.2,0 97.98,0 139.47,0 M 18.42,0 c 41.87,0 83.74,0 121.05,0 m 0,0 c 12.28,0 18.42,6.14 18.42,18.42 M 139.47,0 c 12.28,0 18.42,6.14 18.42,18.42 m 0,0 c 0,12.75 0,25.5 0,36.85 m 0,-36.85 c 0,8.94 0,17.87 0,36.85 m 0,0 c 0,12.29 -6.14,18.43 -18.42,18.43 m 18.42,-18.43 c 0,12.29 -6.14,18.43 -18.42,18.43 m 0,0 c -40.28,0 -80.55,0 -121.05,0 m 121.05,0 c -24.28,0 -48.56,0 -121.05,0 m 0,0 C 6.14,73.7 0,67.56 0,55.27 M 18.42,73.7 C 6.14,73.7 0,67.56 0,55.27 m 0,0 C 0,44.28 0,33.28 0,18.42 M 0,55.27 C 0,45.5 0,35.72 0,18.42 m 0,0 C 0,6.14 6.14,0 18.42,0 M 0,18.42 C 0,6.14 6.14,0 18.42,0"
       stroke="#343a40"
       stroke-width="2"
       fill="none"
       id="path13" />
  </g>
  <g
     transform="matrix(0.61879528,0,0,0.61879528,328.5439,212.53907)"
     id="g15">
    <text
       x="21.666666"
       y="0"
       font-family="Helvetica, 'Segoe UI Emoji'"
       font-size="20px"
       fill="#343a40"
       text-anchor="middle"
       style="white-space:pre"
       direction="ltr"
       dominant-baseline="text-before-edge"
       id="text14">traits</text>
  </g>
  <g
     stroke-linecap="round"
     id="g18"
     transform="matrix(0.61879528,0,0,0.61879528,-3.3398437e-6,-3.190918e-6)">
    <g
       transform="translate(709.94874,114.87298)"
       id="g16">
      <path
         d="M 0,0 C 0.16,10.11 0.8,50.56 0.96,60.67 M 0,0 c 0.16,10.11 0.8,50.56 0.96,60.67"
         stroke="#1e1e1e"
         stroke-width="2"
         fill="none"
         id="path15" />
    </g>
    <g
       transform="translate(709.94874,114.87298)"
       id="g17">
      <path
         d="M 0,0 6.55,13.49 -6.12,13.69 0,0"
         stroke="none"
         stroke-width="0"
         fill="#1e1e1e"
         fill-rule="evenodd"
         id="path16" />
      <path
         d="M 0,0 C 2.12,4.37 4.25,8.74 6.55,13.49 M 0,0 c 1.96,4.03 3.92,8.07 6.55,13.49 m 0,0 c -2.84,0.05 -5.68,0.09 -12.67,0.2 m 12.67,-0.2 c -2.64,0.04 -5.28,0.09 -12.67,0.2 m 0,0 C -4.15,9.28 -2.17,4.86 0,0 M -6.12,13.69 C -4,8.95 -1.88,4.2 0,0 m 0,0 c 0,0 0,0 0,0 m 0,0 c 0,0 0,0 0,0"
         stroke="#1e1e1e"
         stroke-width="2"
         fill="none"
         id="path17" />
    </g>
  </g>
  <mask
     id="mask18" />
  <g
     stroke-linecap="round"
     transform="matrix(0.61879528,0,0,0.61879528,121.85445,108.18249)"
     id="g19">
    <path
       d="m 0,0 c 88.85,0 177.7,0 253.6,0 m 0,0 c 0,77.5 0,155.01 0,364.74 m 0,0 c -92.68,0 -185.36,0 -253.6,0 m 0,0 C 0,249.96 0,135.18 0,0"
       stroke="#868e96"
       stroke-width="2.5"
       fill="none"
       stroke-dasharray="8, 10"
       id="path18" />
  </g>
  <g
     stroke-linecap="round"
     transform="matrix(0.61879528,0,0,0.61879528,128.16223,278.22151)"
     id="g20">
    <path
       d="m 18.52,0 c 68.2,0 136.41,0 197.17,0 M 18.52,0 c 47.79,0 95.58,0 197.17,0 m 0,0 c 12.35,0 18.52,6.17 18.52,18.52 M 215.69,0 c 12.35,0 18.52,6.17 18.52,18.52 m 0,0 c 0,12.32 0,24.64 0,37.03 m 0,-37.03 c 0,7.42 0,14.85 0,37.03 m 0,0 c 0,12.34 -6.17,18.51 -18.52,18.51 m 18.52,-18.51 c 0,12.34 -6.17,18.51 -18.52,18.51 m 0,0 c -58.83,0 -117.66,0 -197.17,0 m 197.17,0 c -52.32,0 -104.64,0 -197.17,0 m 0,0 C 6.17,74.06 0,67.89 0,55.55 M 18.52,74.06 C 6.17,74.06 0,67.89 0,55.55 m 0,0 C 0,47.73 0,39.91 0,18.52 M 0,55.55 C 0,45.23 0,34.91 0,18.52 m 0,0 C 0,6.17 6.17,0 18.52,0 M 0,18.52 C 0,6.17 6.17,0 18.52,0"
       stroke="#343a40"
       stroke-width="2"
       fill="none"
       id="path19" />
  </g>
  <g
     transform="matrix(0.61879528,0,0,0.61879528,135.04957,86.920607)"
     id="g21">
    <text
       x="0"
       y="0"
       font-family="Helvetica, 'Segoe UI Emoji'"
       font-size="20px"
       fill="#1e1e1e"
       text-anchor="start"
       style="white-space:pre"
       direction="ltr"
       dominant-baseline="text-before-edge"
       id="text20">processes (e.g.) :</text>
  </g>
  <g
     stroke-linecap="round"
     transform="matrix(0.61879528,0,0,0.61879528,507.35991,78.041937)"
     id="g22">
    <path
       d="m 8.75,0 c 57.45,0 114.91,0 163,0 5.83,0 8.75,2.92 8.75,8.75 0,6.41 0,12.81 0,17.5 0,5.83 -2.92,8.75 -8.75,8.75 -43.81,0 -87.62,0 -163,0 C 2.92,35 0,32.08 0,26.25 0,21.93 0,17.61 0,8.75 0,2.92 2.92,0 8.75,0"
       stroke="none"
       stroke-width="0"
       fill="#ffffff"
       id="path21" />
    <path
       d="m 8.75,0 c 55.1,0 110.2,0 163,0 m -163,0 c 60.23,0 120.47,0 163,0 m 0,0 c 5.83,0 8.75,2.92 8.75,8.75 M 171.75,0 c 5.83,0 8.75,2.92 8.75,8.75 m 0,0 c 0,5.65 0,11.3 0,17.5 m 0,-17.5 c 0,3.99 0,7.99 0,17.5 m 0,0 c 0,5.83 -2.92,8.75 -8.75,8.75 m 8.75,-8.75 c 0,5.83 -2.92,8.75 -8.75,8.75 m 0,0 c -64.94,0 -129.88,0 -163,0 m 163,0 c -51.92,0 -103.84,0 -163,0 m 0,0 C 2.92,35 0,32.08 0,26.25 M 8.75,35 C 2.92,35 0,32.08 0,26.25 m 0,0 C 0,21.63 0,17.01 0,8.75 m 0,17.5 C 0,19.99 0,13.73 0,8.75 m 0,0 C 0,2.92 2.92,0 8.75,0 M 0,8.75 C 0,2.92 2.92,0 8.75,0"
       stroke="#1e1e1e"
       stroke-width="2"
       fill="none"
       id="path22" />
  </g>
  <g
     transform="matrix(0.61879528,0,0,0.61879528,524.35993,81.754707)"
     id="g23">
    <text
       x="62.775002"
       y="0"
       font-family="Helvetica, 'Segoe UI Emoji'"
       font-size="20px"
       fill="#1e1e1e"
       text-anchor="middle"
       style="white-space:pre"
       direction="ltr"
       dominant-baseline="text-before-edge"
       id="text22">start time step</text>
  </g>
  <g
     stroke-linecap="round"
     transform="matrix(0.61879528,0,0,0.61879528,507.06147,112.77324)"
     id="g24">
    <path
       d="m 10.21,0 c 42.84,0 85.68,0 160.07,0 6.81,0 10.22,3.4 10.22,10.21 0,5.98 0,11.96 0,20.43 0,6.81 -3.41,10.22 -10.22,10.22 -36.84,0 -73.68,0 -160.07,0 C 3.4,40.86 0,37.45 0,30.64 0,22.93 0,15.22 0,10.21 0,3.4 3.4,0 10.21,0"
       stroke="none"
       stroke-width="0"
       fill="#ced4da"
       id="path23" />
    <path
       d="M 10.21,0 C 43.92,0 77.62,0 170.28,0 M 10.21,0 C 51.3,0 92.38,0 170.28,0 m 0,0 c 6.81,0 10.22,3.4 10.22,10.21 M 170.28,0 c 6.81,0 10.22,3.4 10.22,10.21 m 0,0 c 0,5.67 0,11.34 0,20.43 m 0,-20.43 c 0,7.58 0,15.16 0,20.43 m 0,0 c 0,6.81 -3.41,10.22 -10.22,10.22 M 180.5,30.64 c 0,6.81 -3.41,10.22 -10.22,10.22 m 0,0 c -46.27,0 -92.53,0 -160.07,0 m 160.07,0 c -51.03,0 -102.06,0 -160.07,0 m 0,0 C 3.4,40.86 0,37.45 0,30.64 M 10.21,40.86 C 3.4,40.86 0,37.45 0,30.64 m 0,0 C 0,22.76 0,14.87 0,10.21 M 0,30.64 C 0,24.24 0,17.83 0,10.21 m 0,0 C 0,3.4 3.4,0 10.21,0 M 0,10.21 C 0,3.4 3.4,0 10.21,0"
       stroke="#868e96"
       stroke-width="2"
       fill="none"
       id="path24" />
  </g>
  <g
     stroke-linecap="round"
     transform="matrix(0.61879528,0,0,0.61879528,506.67323,142.98591)"
     id="g26">
    <path
       d="m 9.42,0 c 53.34,0 106.68,0 161.65,0 6.28,0 9.43,3.14 9.43,9.42 0,6.11 0,12.22 0,18.85 0,6.28 -3.15,9.42 -9.43,9.42 -37.75,0 -75.51,0 -161.65,0 C 3.14,37.69 0,34.55 0,28.27 0,22.23 0,16.19 0,9.42 0,3.14 3.14,0 9.42,0"
       stroke="none"
       stroke-width="0"
       fill="#f8f9fa"
       id="path25" />
    <path
       d="M 9.42,0 C 60.79,0 112.16,0 171.07,0 M 9.42,0 c 52.42,0 104.83,0 161.65,0 m 0,0 c 6.28,0 9.43,3.14 9.43,9.42 M 171.07,0 c 6.28,0 9.43,3.14 9.43,9.42 m 0,0 c 0,6.05 0,12.1 0,18.85 m 0,-18.85 c 0,5.45 0,10.9 0,18.85 m 0,0 c 0,6.28 -3.15,9.42 -9.43,9.42 m 9.43,-9.42 c 0,6.28 -3.15,9.42 -9.43,9.42 m 0,0 c -59.35,0 -118.7,0 -161.65,0 m 161.65,0 c -36.58,0 -73.16,0 -161.65,0 m 0,0 C 3.14,37.69 0,34.55 0,28.27 m 9.42,9.42 C 3.14,37.69 0,34.55 0,28.27 m 0,0 C 0,22.16 0,16.06 0,9.42 M 0,28.27 C 0,22.78 0,17.29 0,9.42 m 0,0 C 0,3.14 3.14,0 9.42,0 M 0,9.42 C 0,3.14 3.14,0 9.42,0"
       stroke="#868e96"
       stroke-width="2"
       fill="none"
       id="path26" />
  </g>
  <g
     stroke-linecap="round"
     transform="matrix(0.61879528,0,0,0.61879528,506.285,202.75794)"
     id="g28">
    <path
       d="m 9.42,0 c 62.17,0 124.33,0 161.65,0 6.28,0 9.43,3.14 9.43,9.42 0,5.66 0,11.33 0,18.85 0,6.28 -3.15,9.42 -9.43,9.42 -48.83,0 -97.67,0 -161.65,0 C 3.14,37.69 0,34.55 0,28.27 0,24.27 0,20.27 0,9.42 0,3.14 3.14,0 9.42,0"
       stroke="none"
       stroke-width="0"
       fill="#f8f9fa"
       id="path27" />
    <path
       d="M 9.42,0 C 71.54,0 133.66,0 171.07,0 M 9.42,0 C 49.8,0 90.18,0 171.07,0 m 0,0 c 6.28,0 9.43,3.14 9.43,9.42 M 171.07,0 c 6.28,0 9.43,3.14 9.43,9.42 m 0,0 c 0,4.68 0,9.36 0,18.85 m 0,-18.85 c 0,7.12 0,14.23 0,18.85 m 0,0 c 0,6.28 -3.15,9.42 -9.43,9.42 m 9.43,-9.42 c 0,6.28 -3.15,9.42 -9.43,9.42 m 0,0 c -62.13,0 -124.26,0 -161.65,0 m 161.65,0 c -47.2,0 -94.41,0 -161.65,0 m 0,0 C 3.14,37.69 0,34.55 0,28.27 m 9.42,9.42 C 3.14,37.69 0,34.55 0,28.27 m 0,0 C 0,22.15 0,16.04 0,9.42 M 0,28.27 C 0,21.61 0,14.96 0,9.42 m 0,0 C 0,3.14 3.14,0 9.42,0 M 0,9.42 C 0,3.14 3.14,0 9.42,0"
       stroke="#868e96"
       stroke-width="2"
       fill="none"
       id="path28" />
  </g>
  <g
     stroke-linecap="round"
     transform="matrix(0.61879528,0,0,0.61879528,506.86735,171.2386)"
     id="g30">
    <path
       d="m 10.74,0 c 53.93,0 107.86,0 159.01,0 7.16,0 10.75,3.58 10.75,10.74 0,4.71 0,9.41 0,21.49 0,7.16 -3.59,10.74 -10.75,10.74 -37.54,0 -75.09,0 -159.01,0 C 3.58,42.97 0,39.39 0,32.23 0,25.75 0,19.28 0,10.74 0,3.58 3.58,0 10.74,0"
       stroke="none"
       stroke-width="0"
       fill="#f8f9fa"
       id="path29" />
    <path
       d="M 10.74,0 C 54.08,0 97.41,0 169.75,0 M 10.74,0 c 40.8,0 81.6,0 159.01,0 m 0,0 c 7.16,0 10.75,3.58 10.75,10.74 M 169.75,0 c 7.16,0 10.75,3.58 10.75,10.74 m 0,0 c 0,7.83 0,15.66 0,21.49 m 0,-21.49 c 0,5.07 0,10.13 0,21.49 m 0,0 c 0,7.16 -3.59,10.74 -10.75,10.74 M 180.5,32.23 c 0,7.16 -3.59,10.74 -10.75,10.74 m 0,0 c -47.8,0 -95.61,0 -159.01,0 m 159.01,0 c -44.39,0 -88.78,0 -159.01,0 m 0,0 C 3.58,42.97 0,39.39 0,32.23 M 10.74,42.97 C 3.58,42.97 0,39.39 0,32.23 m 0,0 C 0,27.6 0,22.97 0,10.74 M 0,32.23 C 0,27.64 0,23.06 0,10.74 m 0,0 C 0,3.58 3.58,0 10.74,0 M 0,10.74 C 0,3.58 3.58,0 10.74,0"
       stroke="#868e96"
       stroke-width="2"
       fill="none"
       id="path30" />
  </g>
  <g
     stroke-linecap="round"
     transform="matrix(0.61879528,0,0,0.61879528,506.47912,231.01062)"
     id="g32">
    <path
       d="m 10.74,0 c 52.35,0 104.7,0 159.01,0 7.16,0 10.75,3.58 10.75,10.74 0,6.03 0,12.06 0,21.49 0,7.16 -3.59,10.74 -10.75,10.74 -47.88,0 -95.76,0 -159.01,0 C 3.58,42.97 0,39.39 0,32.23 0,27.88 0,23.54 0,10.74 0,3.58 3.58,0 10.74,0"
       stroke="none"
       stroke-width="0"
       fill="#f8f9fa"
       id="path31" />
    <path
       d="M 10.74,0 C 62.05,0 113.35,0 169.75,0 M 10.74,0 c 55.1,0 110.2,0 159.01,0 m 0,0 c 7.16,0 10.75,3.58 10.75,10.74 M 169.75,0 c 7.16,0 10.75,3.58 10.75,10.74 m 0,0 c 0,6.22 0,12.43 0,21.49 m 0,-21.49 c 0,4.4 0,8.79 0,21.49 m 0,0 c 0,7.16 -3.59,10.74 -10.75,10.74 M 180.5,32.23 c 0,7.16 -3.59,10.74 -10.75,10.74 m 0,0 c -36.4,0 -72.8,0 -159.01,0 m 159.01,0 c -40.46,0 -80.92,0 -159.01,0 m 0,0 C 3.58,42.97 0,39.39 0,32.23 M 10.74,42.97 C 3.58,42.97 0,39.39 0,32.23 m 0,0 C 0,27.61 0,23 0,10.74 M 0,32.23 C 0,26.81 0,21.39 0,10.74 m 0,0 C 0,3.58 3.58,0 10.74,0 M 0,10.74 C 0,3.58 3.58,0 10.74,0"
       stroke="#868e96"
       stroke-width="2"
       fill="none"
       id="path32" />
  </g>
  <g
     stroke-linecap="round"
     transform="matrix(0.61879528,0,0,0.61879528,509.00678,302.11137)"
     id="g34">
    <path
       d="m 8.75,0 c 37.55,0 75.11,0 163,0 5.83,0 8.75,2.92 8.75,8.75 0,6.61 0,13.22 0,17.5 0,5.83 -2.92,8.75 -8.75,8.75 -55.49,0 -110.97,0 -163,0 C 2.92,35 0,32.08 0,26.25 0,19.54 0,12.83 0,8.75 0,2.92 2.92,0 8.75,0"
       stroke="none"
       stroke-width="0"
       fill="#ffffff"
       id="path33" />
    <path
       d="m 8.75,0 c 43.19,0 86.39,0 163,0 m -163,0 c 63.14,0 126.28,0 163,0 m 0,0 c 5.83,0 8.75,2.92 8.75,8.75 M 171.75,0 c 5.83,0 8.75,2.92 8.75,8.75 m 0,0 c 0,4.75 0,9.5 0,17.5 m 0,-17.5 c 0,4.42 0,8.84 0,17.5 m 0,0 c 0,5.83 -2.92,8.75 -8.75,8.75 m 8.75,-8.75 c 0,5.83 -2.92,8.75 -8.75,8.75 m 0,0 c -56.59,0 -113.17,0 -163,0 m 163,0 c -44.92,0 -89.83,0 -163,0 m 0,0 C 2.92,35 0,32.08 0,26.25 M 8.75,35 C 2.92,35 0,32.08 0,26.25 m 0,0 C 0,22 0,17.75 0,8.75 m 0,17.5 C 0,22.69 0,19.13 0,8.75 m 0,0 C 0,2.92 2.92,0 8.75,0 M 0,8.75 C 0,2.92 2.92,0 8.75,0"
       stroke="#1e1e1e"
       stroke-width="2"
       fill="none"
       id="path34" />
  </g>
  <g
     transform="matrix(0.61879528,0,0,0.61879528,527.71879,305.82414)"
     id="g35">
    <text
       x="60.008335"
       y="0"
       font-family="Helvetica, 'Segoe UI Emoji'"
       font-size="20px"
       fill="#1e1e1e"
       text-anchor="middle"
       style="white-space:pre"
       direction="ltr"
       dominant-baseline="text-before-edge"
       id="text34">end time step</text>
  </g>
  <g
     stroke-linecap="round"
     id="g38"
     transform="matrix(0.61879528,0,0,0.61879528,-3.3398437e-6,-3.190918e-6)">
    <g
       transform="translate(1012.2786,507.8962)"
       id="g36">
      <path
         d="m 0,0 c 7.04,-11.55 30.87,-38.61 42.22,-69.27 11.36,-30.66 24.96,-77.7 25.91,-114.68 0.96,-36.98 -8.31,-77.97 -20.2,-107.18 C 36.04,-320.35 5.3,-347.91 -3.22,-359.26 M 0,0 c 7.04,-11.55 30.87,-38.61 42.22,-69.27 11.36,-30.66 24.96,-77.7 25.91,-114.68 0.96,-36.98 -8.31,-77.97 -20.2,-107.18 -11.89,-29.22 -42.63,-56.78 -51.15,-68.13"
         stroke="#1e1e1e"
         stroke-width="2"
         fill="none"
         id="path35" />
    </g>
    <g
       transform="translate(1012.2786,507.8962)"
       id="g37">
      <path
         d="m -3.22,-359.26 13.75,5.98 -9.49,8.4 -4.26,-14.38"
         stroke="none"
         stroke-width="0"
         fill="#1e1e1e"
         fill-rule="evenodd"
         id="path36" />
      <path
         d="m -3.22,-359.26 c 5.15,2.24 10.29,4.47 13.75,5.98 m -13.75,-5.98 c 3.42,1.48 6.84,2.97 13.75,5.98 m 0,0 c -3.46,3.06 -6.92,6.12 -9.49,8.4 m 9.49,-8.4 c -2.23,1.98 -4.47,3.96 -9.49,8.4 m 0,0 c -0.98,-3.31 -1.96,-6.62 -4.26,-14.38 m 4.26,14.38 c -0.95,-3.2 -1.9,-6.4 -4.26,-14.38 m 0,0 c 0,0 0,0 0,0 m 0,0 c 0,0 0,0 0,0"
         stroke="#1e1e1e"
         stroke-width="2"
         fill="none"
         id="path37" />
    </g>
  </g>
  <mask
     id="mask38" />
  <g
     transform="matrix(0.61879528,0,0,0.61879528,484.86966,27.397587)"
     id="g39">
    <text
       x="128.88333"
       y="0"
       font-family="Cascadia, 'Segoe UI Emoji'"
       font-size="20px"
       fill="#1e1e1e"
       text-anchor="middle"
       style="white-space:pre"
       direction="ltr"
       dominant-baseline="text-before-edge"
       id="text38">process priority queue</text>
    <text
       x="128.88333"
       y="24"
       font-family="Cascadia, 'Segoe UI Emoji'"
       font-size="20px"
       fill="#1e1e1e"
       text-anchor="middle"
       style="white-space:pre"
       direction="ltr"
       dominant-baseline="text-before-edge"
       id="text39">(variable order)</text>
  </g>
  <g
     stroke-linecap="round"
     transform="matrix(0.61879528,0,0,0.61879528,554.23349,237.7211)"
     id="g40">
    <path
       d="m 16.25,3 c 1.62,1.66 3.24,3.33 5.84,6 M 16.25,3 c 2.17,2.23 4.33,4.45 5.84,6 m 0,0 c 3.25,3 3.25,3 0,6 m 0,-6 c 3.25,3 3.25,3 0,6 m 0,0 c -1.69,1.71 -3.38,3.43 -5.84,5.93 M 22.09,15 c -1.86,1.89 -3.73,3.78 -5.84,5.93 m 0,0 c -3.25,3 -3.25,3 -6.5,0 m 6.5,0 c -3.25,3 -3.25,3 -6.5,0 m 0,0 C 7.24,18.64 4.73,16.35 3.25,15 m 6.5,5.93 C 7.71,19.07 5.67,17.21 3.25,15 m 0,0 C 0,12 0,12 3.25,9 m 0,6 C 0,12 0,12 3.25,9 m 0,0 C 4.99,7.39 6.73,5.79 9.75,3 M 3.25,9 C 5.63,6.8 8.01,4.61 9.75,3 m 0,0 C 13,0 13,0 16.25,3 M 9.75,3 C 13,0 13,0 16.25,3"
       stroke="#1e1e1e"
       stroke-width="2"
       fill="none"
       id="path39" />
  </g>
  <g
     stroke-linecap="round"
     transform="matrix(0.61879528,0,0,0.61879528,141.05541,286.46484)"
     id="g41">
    <path
       d="M 0,0 C 5.52,0 11.04,0 17.19,0 M 0,0 c 4.97,0 9.94,0 17.19,0 m 0,0 c 0,3.89 0,7.79 0,17.95 M 17.19,0 c 0,4.12 0,8.24 0,17.95 m 0,0 c -3.93,0 -7.87,0 -17.19,0 m 17.19,0 c -4.37,0 -8.75,0 -17.19,0 m 0,0 C 0,11.02 0,4.1 0,0 M 0,17.95 C 0,12.32 0,6.69 0,0"
       stroke="#1e1e1e"
       stroke-width="2"
       fill="none"
       id="path40" />
  </g>
  <g
     stroke-linecap="round"
     transform="matrix(0.61879528,0,0,0.61879528,556.84804,179.45892)"
     id="g42">
    <path
       d="M 0,0 C 4.89,0 9.77,0 16.89,0 M 0,0 c 3.45,0 6.91,0 16.89,0 m 0,0 c 0,5.13 0,10.26 0,17.74 M 16.89,0 c 0,5.66 0,11.31 0,17.74 m 0,0 c -4.51,0 -9.02,0 -16.89,0 m 16.89,0 c -6.19,0 -12.37,0 -16.89,0 m 0,0 C 0,13.92 0,10.1 0,0 M 0,17.74 C 0,13.96 0,10.17 0,0"
       stroke="#1e1e1e"
       stroke-width="2"
       fill="none"
       id="path41" />
  </g>
  <g
     stroke-linecap="round"
     transform="matrix(0.61879528,0,0,0.61879528,415.97307,110.20125)"
     id="g43">
    <path
       d="m 4.82,5.51 c 0,0 0,0 0,0 m 0,0 c 0,0 0,0 0,0 M 0.36,22.84 C 7.67,14.42 14.99,6 19.38,0.95 M 0.36,22.84 C 5.93,16.43 11.5,10.02 19.38,0.95 M 0.49,34.88 C 8.6,25.55 16.71,16.21 30.67,0.16 M 0.49,34.88 C 7.32,27.02 14.16,19.15 30.67,0.16 M 0.62,46.92 C 14.47,30.99 28.32,15.06 41.3,0.13 M 0.62,46.92 C 12.88,32.82 25.13,18.73 41.3,0.13 M 0.76,58.96 C 12.33,45.64 23.9,32.33 51.27,0.85 M 0.76,58.96 C 13.55,44.24 26.34,29.53 51.27,0.85 M 0.89,71 C 21.01,47.85 41.14,24.7 61.9,0.81 M 0.89,71 C 19.78,49.27 38.67,27.54 61.9,0.81 M 0.37,83.79 C 28.27,51.7 56.17,19.6 71.88,1.53 M 0.37,83.79 C 14.74,67.26 29.11,50.73 71.88,1.53 M 0.5,95.84 C 23.57,69.3 46.64,42.75 77.92,6.78 M 0.5,95.84 C 29.46,62.52 58.43,29.2 77.92,6.78 M 0.63,107.88 C 22.34,82.9 44.05,57.93 81.33,15.05 M 0.63,107.88 C 17.11,88.92 33.59,69.96 81.33,15.05 M 0.77,119.92 C 19.8,98.02 38.84,76.12 82.12,26.33 M 0.77,119.92 C 17.64,100.5 34.52,81.09 82.12,26.33 M 0.9,131.96 C 19.33,110.76 37.76,89.56 82.25,38.37 M 0.9,131.96 C 21.53,108.22 42.17,84.49 82.25,38.37 M 0.38,144.75 C 30.51,110.09 60.65,75.42 81.73,51.17 M 0.38,144.75 C 31.16,109.34 61.95,73.92 81.73,51.17 M 0.51,156.79 C 22.25,131.78 44,106.77 81.86,63.21 M 0.51,156.79 C 32.74,119.72 64.97,82.64 81.86,63.21 M 0.64,168.84 C 31.87,132.92 63.09,97 81.99,75.25 M 0.64,168.84 C 26.04,139.62 51.43,110.41 81.99,75.25 M 0.78,180.88 C 20.27,158.45 39.76,136.03 82.13,87.29 M 0.78,180.88 C 28.04,149.51 55.3,118.15 82.13,87.29 M 0.91,192.92 C 32.99,156.01 65.07,119.11 82.26,99.33 M 0.91,192.92 C 24.5,165.78 48.08,138.65 82.26,99.33 M 1.04,204.96 c 19.17,-22.05 38.33,-44.1 81.35,-93.59 M 1.04,204.96 C 19.75,183.44 38.45,161.93 82.39,111.37 M 0.52,217.75 C 30.29,183.5 60.07,149.25 81.87,124.17 M 0.52,217.75 C 20.81,194.41 41.1,171.07 81.87,124.17 M 0.65,229.79 C 32.47,193.2 64.28,156.6 82,136.21 M 0.65,229.79 C 24.75,202.07 48.86,174.34 82,136.21 M 0.79,241.84 C 25.72,213.15 50.65,184.47 82.14,148.25 M 0.79,241.84 C 32.06,205.86 63.33,169.89 82.14,148.25 M 0.92,253.88 C 24.16,227.14 47.4,200.41 82.27,160.29 M 0.92,253.88 c 16.77,-19.3 33.54,-38.59 81.35,-93.59 M 1.05,265.92 C 22.8,240.9 44.54,215.89 82.4,172.33 M 1.05,265.92 C 29.12,233.63 57.19,201.34 82.4,172.33 M 0.53,278.71 C 28.41,246.64 56.29,214.57 81.88,185.13 M 0.53,278.71 C 23.95,251.78 47.36,224.84 81.88,185.13 M 0.66,290.75 C 28.61,258.6 56.57,226.44 82.01,197.17 M 0.66,290.75 C 19.99,268.52 39.32,246.28 82.01,197.17 M 0.8,302.79 C 19.45,281.34 38.1,259.88 82.15,209.21 M 0.8,302.79 c 26.5,-30.48 53,-60.97 81.35,-93.58 M 0.93,314.84 C 23.25,289.16 45.57,263.48 82.28,221.25 M 0.93,314.84 C 19.21,293.8 37.5,272.77 82.28,221.25 M 1.06,326.88 C 21.9,302.9 42.75,278.92 82.41,233.29 M 1.06,326.88 C 30.4,293.13 59.74,259.38 82.41,233.29 M 1.85,338.16 c 19.56,-22.49 39.11,-44.99 80.7,-92.83 m -80.7,92.83 c 26.25,-30.2 52.51,-60.4 80.7,-92.83 M 5.92,345.67 c 28.77,-33.1 57.55,-66.2 76.1,-87.54 M 5.92,345.67 C 27.95,320.34 49.97,295 82.02,258.13 M 13.27,349.41 C 32.14,327.7 51.02,305.99 82.16,270.17 m -68.89,79.24 c 14.77,-16.99 29.54,-33.98 68.89,-79.24 m -59.57,80.72 c 23.48,-27.01 46.96,-54.02 59.7,-68.68 m -59.7,68.68 c 15.84,-18.23 31.69,-36.45 59.7,-68.68 M 33.22,350.85 C 45,337.3 56.79,323.74 82.42,294.25 m -49.2,56.6 c 10.99,-12.64 21.98,-25.28 49.2,-56.6 M 43.85,350.82 C 57.16,335.51 70.47,320.2 82.56,306.29 m -38.71,44.53 c 11.53,-13.27 23.07,-26.54 38.71,-44.53 m -28.08,44.5 c 6.96,-8.02 13.93,-16.03 27.55,-31.7 m -27.55,31.7 c 9.36,-10.78 18.72,-21.55 27.55,-31.7 m -16.92,31.66 c 5.59,-6.43 11.18,-12.86 17.71,-20.38 m -17.71,20.38 c 4.48,-5.15 8.96,-10.31 17.71,-20.38"
       stroke="#e9ecef"
       stroke-width="1"
       fill="none"
       id="path42" />
    <path
       d="M 20.56,0 C 32.83,0 45.1,0 61.68,0 m 0,0 c 13.71,0 20.56,6.85 20.56,20.56 m 0,0 c 0,70.98 0,141.97 0,309.39 m 0,0 c 0,13.71 -6.85,20.56 -20.56,20.56 m 0,0 c -8.68,0 -17.36,0 -41.12,0 m 0,0 C 6.85,350.51 0,343.66 0,329.95 m 0,0 C 0,239.15 0,148.35 0,20.56 m 0,0 C 0,6.85 6.85,0 20.56,0"
       stroke="#1e1e1e"
       stroke-width="2.5"
       fill="none"
       stroke-dasharray="1.5, 8"
       id="path43" />
  </g>
  <g
     transform="matrix(0.61879528,0,0,0.61879528,422.16302,211.53204)"
     id="g44">
    <text
       x="31.116667"
       y="0"
       font-family="Helvetica, 'Segoe UI Emoji'"
       font-size="20px"
       fill="#1e1e1e"
       text-anchor="middle"
       style="white-space:pre"
       direction="ltr"
       dominant-baseline="text-before-edge"
       id="text43">access</text>
  </g>
  <g
     stroke-linecap="round"
     transform="matrix(0.61879528,0,0,0.61879528,653.41863,180.9888)"
     id="g45">
    <path
       d="M 0,0 H 60.18 V 68.63 H 0"
       stroke="none"
       stroke-width="0"
       fill="#ffffff"
       id="path44" />
    <path
       d="M 0,0 C 23.13,0 46.26,0 60.18,0 M 0,0 c 17.57,0 35.15,0 60.18,0 m 0,0 c 0,18.11 0,36.22 0,68.63 M 60.18,0 c 0,24.55 0,49.09 0,68.63 m 0,0 c -14.62,0 -29.24,0 -60.18,0 m 60.18,0 c -12.25,0 -24.5,0 -60.18,0 m 0,0 C 0,45.98 0,23.34 0,0 M 0,68.63 C 0,46.37 0,24.11 0,0"
       stroke="transparent"
       stroke-width="2"
       fill="none"
       id="path45" />
  </g>
  <g
     transform="matrix(0.61879528,0,0,0.61879528,655.50107,187.01311)"
     id="g46">
    <text
       x="0"
       y="0"
       font-family="Helvetica, 'Segoe UI Emoji'"
       font-size="20px"
       fill="#1e1e1e"
       text-anchor="start"
       style="white-space:pre"
       direction="ltr"
       dominant-baseline="text-before-edge"
       id="text45">n-time</text>
    <text
       x="0"
       y="23"
       font-family="Helvetica, 'Segoe UI Emoji'"
       font-size="20px"
       fill="#1e1e1e"
       text-anchor="start"
       style="white-space:pre"
       direction="ltr"
       dominant-baseline="text-before-edge"
       id="text46">steps</text>
  </g>
  <g
     stroke-linecap="round"
     transform="matrix(0.61879528,0,0,0.61879528,139.06201,303.30515)"
     id="g47">
    <path
       d="m 12,0 c 3.13,3.23 6.26,6.46 11.63,12 M 12,0 c 4.42,4.56 8.84,9.12 11.63,12 m 0,0 C 20.18,15.14 16.72,18.27 12,22.56 M 23.63,12 C 19.13,16.09 14.62,20.18 12,22.56 m 0,0 C 7.98,19.02 3.95,15.48 0,12 M 12,22.56 C 8.33,19.33 4.67,16.11 0,12 m 0,0 C 2.72,9.28 5.45,6.55 12,0 M 0,12 C 3.12,8.88 6.24,5.76 12,0"
       stroke="#1e1e1e"
       stroke-width="2"
       fill="none"
       id="path46" />
  </g>
  <g
     transform="matrix(0.61879528,0,0,0.61879528,163.57761,283.75328)"
     id="g48">
    <text
       x="0"
       y="0"
       font-family="Helvetica, 'Segoe UI Emoji'"
       font-size="20px"
       fill="#1e1e1e"
       text-anchor="start"
       style="white-space:pre"
       direction="ltr"
       dominant-baseline="text-before-edge"
       id="text47">reproduction</text>
  </g>
  <g
     transform="matrix(0.61879528,0,0,0.61879528,163.57761,302.04623)"
     id="g49">
    <text
       x="0"
       y="0"
       font-family="Helvetica, 'Segoe UI Emoji'"
       font-size="20px"
       fill="#1e1e1e"
       text-anchor="start"
       style="white-space:pre"
       direction="ltr"
       dominant-baseline="text-before-edge"
       id="text48">predation</text>
  </g>
  <g
     stroke-linecap="round"
     transform="matrix(0.61879528,0,0,0.61879528,128.29086,196.42602)"
     id="g50">
    <path
       d="M 18.52,0 C 97.34,0 176.17,0 215.69,0 M 18.52,0 c 45.59,0 91.18,0 197.17,0 m 0,0 c 12.35,0 18.52,6.17 18.52,18.52 M 215.69,0 c 12.35,0 18.52,6.17 18.52,18.52 m 0,0 c 0,8.56 0,17.13 0,37.03 m 0,-37.03 c 0,11.08 0,22.17 0,37.03 m 0,0 c 0,12.34 -6.17,18.51 -18.52,18.51 m 18.52,-18.51 c 0,12.34 -6.17,18.51 -18.52,18.51 m 0,0 c -39.59,0 -79.19,0 -197.17,0 m 197.17,0 c -55.9,0 -111.79,0 -197.17,0 m 0,0 C 6.17,74.06 0,67.89 0,55.55 M 18.52,74.06 C 6.17,74.06 0,67.89 0,55.55 m 0,0 C 0,46.6 0,37.66 0,18.52 M 0,55.55 C 0,42.49 0,29.44 0,18.52 m 0,0 C 0,6.17 6.17,0 18.52,0 M 0,18.52 C 0,6.17 6.17,0 18.52,0"
       stroke="#343a40"
       stroke-width="2"
       fill="none"
       id="path49" />
  </g>
  <g
     transform="matrix(0.61879528,0,0,0.61879528,163.57761,220.67825)"
     id="g51">
    <text
       x="0"
       y="0"
       font-family="Helvetica, 'Segoe UI Emoji'"
       font-size="20px"
       fill="#1e1e1e"
       text-anchor="start"
       style="white-space:pre"
       direction="ltr"
       dominant-baseline="text-before-edge"
       id="text50">reproduction</text>
  </g>
  <g
     transform="matrix(0.61879528,0,0,0.61879528,163.57761,201.80295)"
     id="g52">
    <text
       x="0"
       y="0"
       font-family="Helvetica, 'Segoe UI Emoji'"
       font-size="20px"
       fill="#1e1e1e"
       text-anchor="start"
       style="white-space:pre"
       direction="ltr"
       dominant-baseline="text-before-edge"
       id="text51">dispersal</text>
  </g>
  <g
     transform="matrix(0.61879528,0,0,0.61879528,31.114707,126.72714)"
     id="g53">
    <text
       x="0"
       y="0"
       font-family="Cascadia, 'Segoe UI Emoji'"
       font-size="20px"
       fill="#1e1e1e"
       text-anchor="start"
       style="white-space:pre"
       direction="ltr"
       dominant-baseline="text-before-edge"
       id="text52">simulation</text>
    <text
       x="0"
       y="24"
       font-family="Cascadia, 'Segoe UI Emoji'"
       font-size="20px"
       fill="#1e1e1e"
       text-anchor="start"
       style="white-space:pre"
       direction="ltr"
       dominant-baseline="text-before-edge"
       id="text53">level</text>
  </g>
  <g
     stroke-linecap="round"
     transform="matrix(0.61879528,0,0,0.61879528,128.47062,118.49298)"
     id="g54">
    <path
       d="M 18.52,0 C 68.95,0 119.39,0 215.69,0 M 18.52,0 c 55.73,0 111.47,0 197.17,0 m 0,0 c 12.35,0 18.52,6.17 18.52,18.52 M 215.69,0 c 12.35,0 18.52,6.17 18.52,18.52 m 0,0 c 0,10.43 0,20.86 0,37.03 m 0,-37.03 c 0,13.54 0,27.09 0,37.03 m 0,0 c 0,12.34 -6.17,18.51 -18.52,18.51 m 18.52,-18.51 c 0,12.34 -6.17,18.51 -18.52,18.51 m 0,0 c -45.9,0 -91.81,0 -197.17,0 m 197.17,0 c -50.09,0 -100.19,0 -197.17,0 m 0,0 C 6.17,74.06 0,67.89 0,55.55 M 18.52,74.06 C 6.17,74.06 0,67.89 0,55.55 m 0,0 C 0,46.33 0,37.12 0,18.52 M 0,55.55 C 0,43.46 0,31.38 0,18.52 m 0,0 C 0,6.17 6.17,0 18.52,0 M 0,18.52 C 0,6.17 6.17,0 18.52,0"
       stroke="#343a40"
       stroke-width="2"
       fill="none"
       id="path53" />
  </g>
  <g
     transform="matrix(0.61879528,0,0,0.61879528,163.57761,124.64355)"
     id="g55">
    <text
       x="0"
       y="0"
       font-family="Helvetica, 'Segoe UI Emoji'"
       font-size="20px"
       fill="#1e1e1e"
       text-anchor="start"
       style="white-space:pre"
       direction="ltr"
       dominant-baseline="text-before-edge"
       id="text54">are species alive?</text>
  </g>
  <g
     transform="matrix(0.61879528,0,0,0.61879528,163.57761,142.93651)"
     id="g56">
    <text
       x="0"
       y="0"
       font-family="Helvetica, 'Segoe UI Emoji'"
       font-size="20px"
       fill="#1e1e1e"
       text-anchor="start"
       style="white-space:pre"
       direction="ltr"
       dominant-baseline="text-before-edge"
       id="text55">save output</text>
  </g>
  <g
     stroke-linecap="round"
     transform="matrix(0.61879528,0,0,0.61879528,140.05063,126.32052)"
     id="g57">
    <path
       d="m 20.44,10.22 c 0,0.59 -0.05,1.19 -0.16,1.77 -0.1,0.59 -0.26,1.17 -0.46,1.72 -0.2,0.56 -0.46,1.11 -0.75,1.62 -0.3,0.51 -0.64,1 -1.02,1.46 -0.38,0.45 -0.81,0.88 -1.26,1.26 -0.46,0.38 -0.95,0.72 -1.46,1.02 -0.51,0.29 -1.06,0.55 -1.62,0.75 -0.55,0.2 -1.13,0.36 -1.72,0.46 -0.58,0.11 -1.18,0.16 -1.77,0.16 -0.59,0 -1.19,-0.05 -1.78,-0.16 C 7.86,20.18 7.28,20.02 6.72,19.82 6.17,19.62 5.62,19.36 5.11,19.07 4.6,18.77 4.1,18.43 3.65,18.05 3.2,17.67 2.77,17.24 2.39,16.79 2.01,16.33 1.66,15.84 1.37,15.33 1.07,14.82 0.82,14.27 0.62,13.71 0.41,13.16 0.26,12.58 0.16,11.99 0.05,11.41 0,10.81 0,10.22 0,9.63 0.05,9.03 0.16,8.44 0.26,7.86 0.41,7.28 0.62,6.72 0.82,6.17 1.07,5.62 1.37,5.11 1.66,4.6 2.01,4.1 2.39,3.65 2.77,3.2 3.2,2.77 3.65,2.39 4.1,2.01 4.6,1.66 5.11,1.37 5.62,1.07 6.17,0.82 6.72,0.62 7.28,0.41 7.86,0.26 8.44,0.16 9.03,0.05 9.63,0 10.22,0 c 0.59,0 1.19,0.05 1.77,0.16 0.59,0.1 1.17,0.25 1.72,0.46 0.56,0.2 1.11,0.45 1.62,0.75 0.51,0.29 1,0.64 1.46,1.02 0.45,0.38 0.88,0.81 1.26,1.26 0.38,0.45 0.72,0.95 1.02,1.46 0.29,0.51 0.55,1.06 0.75,1.61 0.2,0.56 0.36,1.14 0.46,1.72 0.11,0.59 0.13,1.48 0.16,1.78 0.02,0.29 0.02,-0.3 0,0"
       stroke="#1e1e1e"
       stroke-width="2"
       fill="none"
       id="path56" />
  </g>
  <g
     stroke-linecap="round"
     transform="matrix(0.61879528,0,0,0.61879528,287.57721,107.4535)"
     id="g58">
    <path
       d="m 0,0 c 41.4,0 82.8,0 183.79,0 m 0,0 c 0,117.78 0,235.57 0,366.36 m 0,0 c -53.74,0 -107.48,0 -183.79,0 m 0,0 C 0,249.1 0,131.84 0,0"
       stroke="#868e96"
       stroke-width="2.5"
       fill="none"
       stroke-dasharray="8, 10"
       id="path57" />
  </g>
  <g
     transform="matrix(0.61879528,0,0,0.61879528,299.50734,87.532527)"
     id="g59">
    <text
       x="0"
       y="0"
       font-family="Helvetica, 'Segoe UI Emoji'"
       font-size="20px"
       fill="#1e1e1e"
       text-anchor="start"
       style="white-space:pre"
       direction="ltr"
       dominant-baseline="text-before-edge"
       id="text58">data / variables:</text>
  </g>
  <g
     stroke-linecap="round"
     transform="matrix(0.61879528,0,0,0.61879528,292.97631,278.23181)"
     id="g60">
    <path
       d="m 18.11,0 c 46.32,0 92.64,0 121.67,0 M 18.11,0 c 28.6,0 57.19,0 121.67,0 m 0,0 c 12.07,0 18.11,6.04 18.11,18.11 M 139.78,0 c 12.07,0 18.11,6.04 18.11,18.11 m 0,0 c 0,12.9 0,25.8 0,36.23 m 0,-36.23 c 0,13.28 0,26.55 0,36.23 m 0,0 c 0,12.08 -6.04,18.12 -18.11,18.12 m 18.11,-18.12 c 0,12.08 -6.04,18.12 -18.11,18.12 m 0,0 c -32.14,0 -64.27,0 -121.67,0 m 121.67,0 c -43.64,0 -87.28,0 -121.67,0 m 0,0 C 6.04,72.46 0,66.42 0,54.34 M 18.11,72.46 C 6.04,72.46 0,66.42 0,54.34 m 0,0 C 0,42.33 0,30.31 0,18.11 M 0,54.34 C 0,40.2 0,26.06 0,18.11 m 0,0 C 0,6.04 6.04,0 18.11,0 M 0,18.11 C 0,6.04 6.04,0 18.11,0"
       stroke="#343a40"
       stroke-width="2"
       fill="none"
       id="path59" />
  </g>
  <g
     transform="matrix(0.61879528,0,0,0.61879528,328.42079,293.53411)"
     id="g61">
    <text
       x="21.666666"
       y="0"
       font-family="Helvetica, 'Segoe UI Emoji'"
       font-size="20px"
       fill="#343a40"
       text-anchor="middle"
       style="white-space:pre"
       direction="ltr"
       dominant-baseline="text-before-edge"
       id="text60">traits</text>
  </g>
  <g
     transform="matrix(0.61879528,0,0,0.61879528,31.114707,213.63878)"
     id="g62">
    <text
       x="0"
       y="0"
       font-family="Cascadia, 'Segoe UI Emoji'"
       font-size="20px"
       fill="#1e1e1e"
       text-anchor="start"
       style="white-space:pre"
       direction="ltr"
       dominant-baseline="text-before-edge"
       id="text61">species I</text>
  </g>
  <g
     transform="matrix(0.61879528,0,0,0.61879528,31.114707,296.03743)"
     id="g63">
    <text
       x="0"
       y="0"
       font-family="Cascadia, 'Segoe UI Emoji'"
       font-size="20px"
       fill="#1e1e1e"
       text-anchor="start"
       style="white-space:pre"
       direction="ltr"
       dominant-baseline="text-before-edge"
       id="text62">species I..n</text>
  </g>
  <g
     stroke-linecap="round"
     transform="matrix(0.61879528,0,0,0.61879528,292.24268,118.69223)"
     id="g64">
    <path
       d="M 18.26,0 C 54.09,0 89.92,0 142.09,0 M 18.26,0 c 25.1,0 50.2,0 123.83,0 m 0,0 c 12.17,0 18.26,6.09 18.26,18.26 M 142.09,0 c 12.17,0 18.26,6.09 18.26,18.26 m 0,0 c 0,7.45 0,14.9 0,36.53 m 0,-36.53 c 0,13.21 0,26.42 0,36.53 m 0,0 c 0,12.17 -6.09,18.26 -18.26,18.26 m 18.26,-18.26 c 0,12.17 -6.09,18.26 -18.26,18.26 m 0,0 c -42.01,0 -84.02,0 -123.83,0 m 123.83,0 c -41.84,0 -83.67,0 -123.83,0 m 0,0 C 6.09,73.05 0,66.96 0,54.79 M 18.26,73.05 C 6.09,73.05 0,66.96 0,54.79 m 0,0 C 0,45.34 0,35.89 0,18.26 M 0,54.79 C 0,47.3 0,39.8 0,18.26 m 0,0 C 0,6.09 6.09,0 18.26,0 M 0,18.26 C 0,6.09 6.09,0 18.26,0"
       stroke="#343a40"
       stroke-width="2"
       fill="none"
       id="path63" />
  </g>
  <g
     transform="matrix(0.61879528,0,0,0.61879528,322.24864,134.17758)"
     id="g65">
    <text
       x="31.683332"
       y="0"
       font-family="Helvetica, 'Segoe UI Emoji'"
       font-size="20px"
       fill="#343a40"
       text-anchor="middle"
       style="white-space:pre"
       direction="ltr"
       dominant-baseline="text-before-edge"
       id="text64">globals</text>
  </g>
  <g
     stroke-linecap="round"
     transform="matrix(0.61879528,0,0,0.61879528,555.53914,119.32163)"
     id="g66">
    <path
       d="m 21.12,10.56 c 0,0.61 -0.06,1.23 -0.16,1.83 -0.11,0.6 -0.27,1.2 -0.48,1.78 -0.21,0.57 -0.47,1.14 -0.78,1.67 -0.3,0.53 -0.66,1.04 -1.05,1.5 -0.4,0.47 -0.84,0.91 -1.31,1.31 -0.46,0.39 -0.97,0.75 -1.5,1.05 -0.53,0.31 -1.1,0.57 -1.67,0.78 -0.58,0.21 -1.18,0.37 -1.78,0.48 -0.6,0.1 -1.22,0.16 -1.83,0.16 -0.61,0 -1.23,-0.06 -1.84,-0.16 C 8.12,20.85 7.52,20.69 6.95,20.48 6.37,20.27 5.81,20.01 5.28,19.7 4.75,19.4 4.24,19.04 3.77,18.65 3.3,18.25 2.86,17.81 2.47,17.34 2.08,16.88 1.72,16.37 1.41,15.84 1.11,15.31 0.85,14.74 0.64,14.17 0.43,13.59 0.27,12.99 0.16,12.39 0.05,11.79 0,11.17 0,10.56 0,9.95 0.05,9.33 0.16,8.72 0.27,8.12 0.43,7.52 0.64,6.95 0.85,6.37 1.11,5.81 1.41,5.28 1.72,4.75 2.08,4.24 2.47,3.77 2.86,3.3 3.3,2.86 3.77,2.47 4.24,2.08 4.75,1.72 5.28,1.41 5.81,1.11 6.37,0.85 6.95,0.64 7.52,0.43 8.12,0.27 8.72,0.16 9.33,0.05 9.95,0 10.56,0 c 0.61,0 1.23,0.05 1.83,0.16 0.6,0.11 1.2,0.27 1.78,0.48 0.57,0.21 1.14,0.47 1.67,0.77 0.53,0.31 1.04,0.67 1.5,1.06 0.47,0.39 0.91,0.83 1.31,1.3 0.39,0.47 0.75,0.98 1.05,1.51 0.31,0.53 0.57,1.09 0.78,1.67 0.21,0.57 0.37,1.17 0.48,1.77 0.1,0.61 0.13,1.53 0.16,1.84 0.02,0.3 0.02,-0.31 0,0"
       stroke="#1e1e1e"
       stroke-width="2"
       fill="none"
       id="path65" />
  </g>
  <g
     stroke-linecap="round"
     transform="matrix(0.61879528,0,0,0.61879528,506.09089,262.52996)"
     id="g67">
    <path
       d="m 10.74,0 c 33.07,0 66.14,0 159.01,0 7.16,0 10.75,3.58 10.75,10.74 0,4.55 0,9.1 0,21.49 0,7.16 -3.59,10.74 -10.75,10.74 -38.97,0 -77.94,0 -159.01,0 C 3.58,42.97 0,39.39 0,32.23 0,25.43 0,18.64 0,10.74 0,3.58 3.58,0 10.74,0"
       stroke="none"
       stroke-width="0"
       fill="#ced4da"
       id="path66" />
    <path
       d="m 10.74,0 c 56.25,0 112.5,0 159.01,0 M 10.74,0 c 34.19,0 68.37,0 159.01,0 m 0,0 c 7.16,0 10.75,3.58 10.75,10.74 M 169.75,0 c 7.16,0 10.75,3.58 10.75,10.74 m 0,0 c 0,6.87 0,13.75 0,21.49 m 0,-21.49 c 0,7.26 0,14.51 0,21.49 m 0,0 c 0,7.16 -3.59,10.74 -10.75,10.74 M 180.5,32.23 c 0,7.16 -3.59,10.74 -10.75,10.74 m 0,0 c -54.43,0 -108.87,0 -159.01,0 m 159.01,0 c -60.16,0 -120.32,0 -159.01,0 m 0,0 C 3.58,42.97 0,39.39 0,32.23 M 10.74,42.97 C 3.58,42.97 0,39.39 0,32.23 m 0,0 C 0,26.87 0,21.51 0,10.74 M 0,32.23 C 0,23.8 0,15.37 0,10.74 m 0,0 C 0,3.58 3.58,0 10.74,0 M 0,10.74 C 0,3.58 3.58,0 10.74,0"
       stroke="#868e96"
       stroke-width="2"
       fill="none"
       id="path67" />
  </g>
  <g
     stroke-linecap="round"
     id="g71"
     transform="matrix(0.61879528,0,0,0.61879528,-3.3398437e-6,-3.190918e-6)">
    <g
       transform="translate(613.45188,354.87882)"
       id="g68">
      <path
         d="M 0,0 C 9.57,-0.07 47.86,-0.37 57.43,-0.44 M 0,0 c 9.57,-0.07 47.86,-0.37 57.43,-0.44"
         stroke="#1e1e1e"
         stroke-width="2"
         fill="none"
         id="path68" />
    </g>
    <g
       transform="translate(613.45188,354.87882)"
       id="g70">
      <path
         d="M 0,0 13.55,-6.44 13.64,6.24 0,0"
         stroke="none"
         stroke-width="0"
         fill="#1e1e1e"
         fill-rule="evenodd"
         id="path69" />
      <path
         d="M 0,0 C 3.65,-1.73 7.3,-3.47 13.55,-6.44 M 0,0 c 5.38,-2.56 10.75,-5.12 13.55,-6.44 m 0,0 c 0.03,4.4 0.06,8.8 0.09,12.68 M 13.55,-6.44 c 0.02,3.13 0.04,6.26 0.09,12.68 m 0,0 C 9.92,4.54 6.21,2.84 0,0 M 13.64,6.24 C 10.14,4.64 6.64,3.04 0,0 m 0,0 c 0,0 0,0 0,0 m 0,0 c 0,0 0,0 0,0"
         stroke="#1e1e1e"
         stroke-width="2"
         fill="none"
         id="path70" />
    </g>
  </g>
  <mask
     id="mask71" />
  <g
     stroke-linecap="round"
     id="g74"
     transform="matrix(0.61879528,0,0,0.61879528,-3.3398437e-6,-3.190918e-6)">
    <g
       transform="translate(613.35537,488.87076)"
       id="g72">
      <path
         d="M 0,0 C 10,0.02 50.01,0.09 60.02,0.1 M 0,0 c 10,0.02 50.01,0.09 60.02,0.1"
         stroke="#1e1e1e"
         stroke-width="2"
         fill="none"
         id="path71" />
    </g>
    <g
       transform="translate(613.35537,488.87076)"
       id="g73">
      <path
         d="M 0,0 13.61,-6.32 13.58,6.36 0,0"
         stroke="none"
         stroke-width="0"
         fill="#1e1e1e"
         fill-rule="evenodd"
         id="path72" />
      <path
         d="M 0,0 C 3.69,-1.71 7.38,-3.43 13.61,-6.32 M 0,0 c 3.44,-1.6 6.88,-3.19 13.61,-6.32 m 0,0 C 13.6,-1.66 13.59,2.99 13.58,6.36 M 13.61,-6.32 C 13.6,-3.45 13.6,-0.58 13.58,6.36 m 0,0 C 8.65,4.05 3.72,1.74 0,0 M 13.58,6.36 C 9.6,4.5 5.61,2.63 0,0 m 0,0 c 0,0 0,0 0,0 m 0,0 c 0,0 0,0 0,0"
         stroke="#1e1e1e"
         stroke-width="2"
         fill="none"
         id="path73" />
    </g>
  </g>
  <mask
     id="mask74" />
  <g
     stroke-linecap="round"
     id="g77"
     transform="matrix(0.61879528,0,0,0.61879528,-3.3398437e-6,-3.190918e-6)">
    <g
       transform="translate(613.02123,226.20043)"
       id="g75">
      <path
         d="M 0,0 C 9.41,-0.03 47.06,-0.17 56.47,-0.21 M 0,0 c 9.41,-0.03 47.06,-0.17 56.47,-0.21"
         stroke="#1e1e1e"
         stroke-width="2"
         fill="none"
         id="path74" />
    </g>
    <g
       transform="translate(613.02123,226.20043)"
       id="g76">
      <path
         d="M 0,0 13.57,-6.39 13.62,6.29 0,0"
         stroke="none"
         stroke-width="0"
         fill="#1e1e1e"
         fill-rule="evenodd"
         id="path75" />
      <path
         d="M 0,0 C 2.91,-1.37 5.83,-2.74 13.57,-6.39 M 0,0 c 3.42,-1.61 6.84,-3.22 13.57,-6.39 m 0,0 C 13.58,-3 13.6,0.4 13.62,6.29 M 13.57,-6.39 c 0.02,4.64 0.04,9.28 0.05,12.68 m 0,0 C 10.28,4.75 6.94,3.21 0,0 M 13.62,6.29 C 8.47,3.91 3.33,1.54 0,0 m 0,0 c 0,0 0,0 0,0 m 0,0 c 0,0 0,0 0,0"
         stroke="#1e1e1e"
         stroke-width="2"
         fill="none"
         id="path76" />
    </g>
  </g>
  <mask
     id="mask77" />
  <g
     stroke-linecap="round"
     id="g79"
     transform="matrix(0.61879528,0,0,0.61879528,-3.3398437e-6,-3.190918e-6)">
    <g
       transform="translate(811.18443,449.52426)"
       id="g78">
      <path
         d="M 0,0 C -14.73,-0.09 -29.46,-0.19 -50.95,-0.33 M 0,0 c -16.25,-0.1 -32.49,-0.21 -50.95,-0.33"
         stroke="#1e1e1e"
         stroke-width="2"
         fill="none"
         id="path77" />
    </g>
  </g>
  <mask
     id="mask79" />
  <g
     stroke-linecap="round"
     id="g81"
     transform="matrix(0.61879528,0,0,0.61879528,-3.3398437e-6,-3.190918e-6)">
    <g
       transform="translate(812.07725,393.21143)"
       id="g80">
      <path
         d="M 0,0 C -18.78,-0.06 -37.56,-0.11 -50.95,-0.15 M 0,0 c -16.72,-0.05 -33.44,-0.1 -50.95,-0.15"
         stroke="#1e1e1e"
         stroke-width="2"
         fill="none"
         id="path79" />
    </g>
  </g>
  <mask
     id="mask81" />
  <g
     stroke-linecap="round"
     id="g83"
     transform="matrix(0.61879528,0,0,0.61879528,-3.3398437e-6,-3.190918e-6)">
    <g
       transform="translate(812.07725,343.32622)"
       id="g82">
      <path
         d="M 0,0 C -16.3,0.03 -32.61,0.05 -50.95,0.08 M 0,0 c -15.64,0.03 -31.29,0.05 -50.95,0.08"
         stroke="#1e1e1e"
         stroke-width="2"
         fill="none"
         id="path81" />
    </g>
  </g>
  <mask
     id="mask83" />
  <g
     stroke-linecap="round"
     id="g85"
     transform="matrix(0.61879528,0,0,0.61879528,-3.3398437e-6,-3.190918e-6)">
    <g
       transform="translate(812.07725,298.386)"
       id="g84">
      <path
         d="M 0,0 C -16.35,0.11 -32.69,0.21 -50.95,0.33 M 0,0 c -10.9,0.07 -21.8,0.14 -50.95,0.33"
         stroke="#1e1e1e"
         stroke-width="2"
         fill="none"
         id="path83" />
    </g>
  </g>
  <mask
     id="mask85" />
  <g
     stroke-linecap="round"
     id="g87"
     transform="matrix(0.61879528,0,0,0.61879528,-3.3398437e-6,-3.190918e-6)">
    <g
       transform="translate(813.07725,248.44843)"
       id="g86">
      <path
         d="M 0,0 C -17.74,0.18 -35.48,0.37 -50.95,0.53 M 0,0 c -13.41,0.14 -26.82,0.28 -50.95,0.53"
         stroke="#1e1e1e"
         stroke-width="2"
         fill="none"
         id="path85" />
    </g>
  </g>
  <mask
     id="mask87" />
  <g
     stroke-linecap="round"
     id="g89"
     transform="matrix(0.61879528,0,0,0.61879528,-3.3398437e-6,-3.190918e-6)">
    <g
       transform="translate(812.56447,204.81367)"
       id="g88">
      <path
         d="M 0,0 C -12.45,0.17 -24.91,0.33 -50.95,0.68 M 0,0 c -11.43,0.15 -22.86,0.3 -50.95,0.68"
         stroke="#1e1e1e"
         stroke-width="2"
         fill="none"
         id="path87" />
    </g>
  </g>
  <mask
     id="mask89" />
  <g
     stroke-linecap="round"
     id="g92"
     transform="matrix(0.61879528,0,0,0.61879528,-3.3398437e-6,-3.190918e-6)">
    <g
       transform="translate(910.31169,163.35013)"
       id="g90">
      <path
         d="M 0,0 C 0,3.92 0,7.85 0.01,16.73"
         stroke="#1e1e1e"
         stroke-width="2.5"
         fill="none"
         stroke-dasharray="8, 10"
         id="path89" />
    </g>
    <g
       transform="translate(910.31169,163.35013)"
       id="g91">
      <path
         d="M 0.01,16.73 -3.53,9.15 h 7.07 l -3.53,7.58"
         stroke="none"
         stroke-width="0"
         fill="#1e1e1e"
         fill-rule="evenodd"
         id="path90" />
      <path
         d="M 0.01,16.73 C -0.82,14.95 -1.65,13.17 -3.53,9.15 m 0,0 c 1.52,0 3.04,0 7.07,0 m 0,0 c -0.9,1.93 -1.81,3.87 -3.53,7.58 m 0,0 c 0,0 0,0 0,0"
         stroke="#1e1e1e"
         stroke-width="2.5"
         fill="none"
         id="path91" />
    </g>
  </g>
  <mask
     id="mask92" />
  <g
     stroke-linecap="round"
     id="g95"
     transform="matrix(0.61879528,0,0,0.61879528,-3.3398437e-6,-3.190918e-6)">
    <g
       transform="translate(907.45136,469.69721)"
       id="g93">
      <path
         d="M 0,0 C 0,5.04 0,10.08 0.01,16.73"
         stroke="#1e1e1e"
         stroke-width="2.5"
         fill="none"
         stroke-dasharray="8, 10"
         id="path92" />
    </g>
    <g
       transform="translate(907.45136,469.69721)"
       id="g94">
      <path
         d="M 0.01,16.73 -3.53,9.15 h 7.07 l -3.53,7.58"
         stroke="none"
         stroke-width="0"
         fill="#1e1e1e"
         fill-rule="evenodd"
         id="path93" />
      <path
         d="M 0.01,16.73 C -1.06,14.44 -2.12,12.16 -3.53,9.15 m 0,0 c 1.53,0 3.06,0 7.07,0 m 0,0 c -1.13,2.42 -2.26,4.84 -3.53,7.58 m 0,0 c 0,0 0,0 0,0"
         stroke="#1e1e1e"
         stroke-width="2.5"
         fill="none"
         id="path94" />
    </g>
  </g>
  <mask
     id="mask95" />
  <g
     stroke-linecap="round"
     id="g97"
     transform="matrix(0.61879528,0,0,0.61879528,-3.3398437e-6,-3.190918e-6)">
    <g
       transform="translate(225.97642,345.68901)"
       id="g96">
      <path
         d="M 0,0 C 8.41,0 16.82,0 21.11,0 M 0,0 c 5.97,0 11.94,0 21.11,0"
         stroke="#1e1e1e"
         stroke-width="2"
         fill="none"
         id="path95" />
    </g>
  </g>
  <mask
     id="mask97" />
  <g
     stroke-linecap="round"
     id="g99"
     transform="matrix(0.61879528,0,0,0.61879528,-3.3398437e-6,-3.190918e-6)">
    <g
       transform="translate(225.97642,345.42062)"
       id="g98">
      <path
         d="M 0,0 C 3.95,-6.73 7.9,-13.47 10.25,-17.46 M 0,0 c 3.29,-5.61 6.59,-11.23 10.25,-17.46"
         stroke="#1e1e1e"
         stroke-width="2"
         fill="none"
         id="path97" />
    </g>
  </g>
  <mask
     id="mask99" />
  <g
     stroke-linecap="round"
     id="g101"
     transform="matrix(0.61879528,0,0,0.61879528,-3.3398437e-6,-3.190918e-6)">
    <g
       transform="translate(247.26857,345.42062)"
       id="g100">
      <path
         d="M 0,0 C -3.07,-5.06 -6.15,-10.12 -10.69,-17.59 M 0,0 c -2.34,-3.85 -4.67,-7.69 -10.69,-17.59"
         stroke="#1e1e1e"
         stroke-width="2"
         fill="none"
         id="path99" />
    </g>
  </g>
  <mask
     id="mask101" />
  <g
     stroke-linecap="round"
     id="g103"
     transform="matrix(0.61879528,0,0,0.61879528,-3.3398437e-6,-3.190918e-6)">
    <g
       transform="translate(898.01948,257.62275)"
       id="g102">
      <path
         d="M 0,0 C 4.91,0 9.82,0 20.53,0 M 0,0 c 5.4,0 10.81,0 20.53,0"
         stroke="#343a40"
         stroke-width="2"
         fill="none"
         id="path101" />
    </g>
  </g>
  <mask
     id="mask103" />
  <g
     stroke-linecap="round"
     id="g105"
     transform="matrix(0.61879528,0,0,0.61879528,-3.3398437e-6,-3.190918e-6)">
    <g
       transform="translate(898.01948,257.36184)"
       id="g104">
      <path
         d="M 0,0 C 3.81,-6.88 7.62,-13.76 9.57,-17.27 M 0,0 c 2.56,-4.63 5.13,-9.25 9.57,-17.27"
         stroke="#343a40"
         stroke-width="2"
         fill="none"
         id="path103" />
    </g>
  </g>
  <mask
     id="mask105" />
  <g
     stroke-linecap="round"
     id="g107"
     transform="matrix(0.61879528,0,0,0.61879528,-3.3398437e-6,-3.190918e-6)">
    <g
       transform="translate(918.71862,257.36184)"
       id="g106">
      <path
         d="M 0,0 C -4.12,-6.6 -8.23,-13.21 -10.78,-17.3 M 0,0 c -3.21,-5.14 -6.41,-10.28 -10.78,-17.3"
         stroke="#343a40"
         stroke-width="2"
         fill="none"
         id="path105" />
    </g>
  </g>
  <mask
     id="mask107" />
  <g
     stroke-linecap="round"
     id="g109"
     transform="matrix(0.61879528,0,0,0.61879528,-3.3398437e-6,-3.190918e-6)">
    <g
       transform="rotate(180,123.32598,181.45892)"
       id="g108">
      <path
         d="M 0,0 C 4.63,0 9.27,0 20.5,0 M 0,0 c 7.38,0 14.76,0 20.5,0"
         stroke="#1e1e1e"
         stroke-width="2"
         fill="none"
         id="path107" />
    </g>
  </g>
  <mask
     id="mask109" />
  <g
     stroke-linecap="round"
     id="g111"
     transform="matrix(0.61879528,0,0,0.61879528,-3.3398437e-6,-3.190918e-6)">
    <g
       transform="rotate(180,123.32598,181.58923)"
       id="g110">
      <path
         d="M 0,0 C 2.4,-4.09 4.8,-8.18 9.95,-16.95 M 0,0 c 2.88,-4.91 5.76,-9.81 9.95,-16.95"
         stroke="#1e1e1e"
         stroke-width="2"
         fill="none"
         id="path109" />
    </g>
  </g>
  <mask
     id="mask111" />
  <g
     stroke-linecap="round"
     id="g113"
     transform="matrix(0.61879528,0,0,0.61879528,-3.3398437e-6,-3.190918e-6)">
    <g
       transform="rotate(180,112.98821,181.58923)"
       id="g112">
      <path
         d="M 0,0 C -3.42,-5.63 -6.84,-11.26 -10.38,-17.08 M 0,0 c -3.02,-4.97 -6.03,-9.93 -10.38,-17.08"
         stroke="#1e1e1e"
         stroke-width="2"
         fill="none"
         id="path111" />
    </g>
  </g>
  <mask
     id="mask113" />
  <g
     stroke-linecap="round"
     id="g115"
     transform="matrix(0.61879528,0,0,0.61879528,-3.3398437e-6,-3.190918e-6)">
    <g
       transform="rotate(180,459.15449,170.06842)"
       id="g114">
      <path
         d="M 0,0 C 4.59,0 9.18,0 20.5,0 M 0,0 c 6.07,0 12.14,0 20.5,0"
         stroke="#1e1e1e"
         stroke-width="2"
         fill="none"
         id="path113" />
    </g>
  </g>
  <mask
     id="mask115" />
  <g
     stroke-linecap="round"
     id="g117"
     transform="matrix(0.61879528,0,0,0.61879528,-3.3398437e-6,-3.190918e-6)">
    <g
       transform="rotate(180,459.15449,170.19873)"
       id="g116">
      <path
         d="M 0,0 C 2.95,-5.03 5.9,-10.06 9.95,-16.95 M 0,0 c 2.31,-3.93 4.62,-7.87 9.95,-16.95"
         stroke="#1e1e1e"
         stroke-width="2"
         fill="none"
         id="path115" />
    </g>
  </g>
  <mask
     id="mask117" />
  <g
     stroke-linecap="round"
     id="g119"
     transform="matrix(0.61879528,0,0,0.61879528,-3.3398437e-6,-3.190918e-6)">
    <g
       transform="rotate(180,448.81672,170.19873)"
       id="g118">
      <path
         d="M 0,0 C -3.35,-5.52 -6.7,-11.03 -10.38,-17.08 M 0,0 c -3.61,-5.94 -7.22,-11.88 -10.38,-17.08"
         stroke="#1e1e1e"
         stroke-width="2"
         fill="none"
         id="path117" />
    </g>
  </g>
  <mask
     id="mask119" />
  <g
     stroke-linecap="round"
     transform="matrix(0.61879528,0,0,0.61879528,140.85825,145.50386)"
     id="g120">
    <path
       d="m 17.83,8.91 c 0,0.52 -0.05,1.04 -0.14,1.55 -0.09,0.51 -0.22,1.02 -0.4,1.5 -0.18,0.49 -0.4,0.96 -0.66,1.41 -0.25,0.45 -0.56,0.88 -0.89,1.27 -0.33,0.4 -0.7,0.77 -1.1,1.1 -0.39,0.33 -0.82,0.64 -1.27,0.89 -0.45,0.26 -0.92,0.48 -1.41,0.66 -0.48,0.18 -0.99,0.31 -1.5,0.4 C 9.95,17.78 9.43,17.83 8.91,17.83 8.4,17.83 7.87,17.78 7.37,17.69 6.86,17.6 6.35,17.47 5.87,17.29 5.38,17.11 4.9,16.89 4.46,16.63 4.01,16.38 3.58,16.07 3.18,15.74 2.79,15.41 2.42,15.04 2.09,14.64 1.75,14.25 1.45,13.82 1.19,13.37 0.94,12.92 0.71,12.45 0.54,11.96 0.36,11.48 0.23,10.97 0.14,10.46 0.05,9.95 0,9.43 0,8.91 0,8.4 0.05,7.87 0.14,7.37 0.23,6.86 0.36,6.35 0.54,5.87 0.71,5.38 0.94,4.9 1.19,4.46 1.45,4.01 1.75,3.58 2.09,3.18 2.42,2.79 2.79,2.42 3.18,2.09 3.58,1.75 4.01,1.45 4.46,1.19 4.9,0.94 5.38,0.71 5.87,0.54 6.35,0.36 6.86,0.23 7.37,0.14 7.87,0.05 8.4,0 8.91,0 c 0.52,0 1.04,0.05 1.55,0.14 0.51,0.09 1.02,0.22 1.5,0.4 0.49,0.17 0.96,0.4 1.41,0.65 0.45,0.26 0.88,0.56 1.27,0.9 0.4,0.33 0.77,0.7 1.1,1.09 0.33,0.4 0.64,0.83 0.89,1.28 0.26,0.44 0.48,0.92 0.66,1.41 0.18,0.48 0.31,0.99 0.4,1.5 0.09,0.5 0.12,1.29 0.14,1.54 0.02,0.26 0.02,-0.25 0,0"
       stroke="none"
       stroke-width="0"
       fill="#1e1e1e"
       id="path119" />
    <path
       d="m 17.83,8.91 c 0,0.52 -0.05,1.04 -0.14,1.55 -0.09,0.51 -0.22,1.02 -0.4,1.5 -0.18,0.49 -0.4,0.96 -0.66,1.41 -0.25,0.45 -0.56,0.88 -0.89,1.27 -0.33,0.4 -0.7,0.77 -1.1,1.1 -0.39,0.33 -0.82,0.64 -1.27,0.89 -0.45,0.26 -0.92,0.48 -1.41,0.66 -0.48,0.18 -0.99,0.31 -1.5,0.4 C 9.95,17.78 9.43,17.83 8.91,17.83 8.4,17.83 7.87,17.78 7.37,17.69 6.86,17.6 6.35,17.47 5.87,17.29 5.38,17.11 4.9,16.89 4.46,16.63 4.01,16.38 3.58,16.07 3.18,15.74 2.79,15.41 2.42,15.04 2.09,14.64 1.75,14.25 1.45,13.82 1.19,13.37 0.94,12.92 0.71,12.45 0.54,11.96 0.36,11.48 0.23,10.97 0.14,10.46 0.05,9.95 0,9.43 0,8.91 0,8.4 0.05,7.87 0.14,7.37 0.23,6.86 0.36,6.35 0.54,5.87 0.71,5.38 0.94,4.9 1.19,4.46 1.45,4.01 1.75,3.58 2.09,3.18 2.42,2.79 2.79,2.42 3.18,2.09 3.58,1.75 4.01,1.45 4.46,1.19 4.9,0.94 5.38,0.71 5.87,0.54 6.35,0.36 6.86,0.23 7.37,0.14 7.87,0.05 8.4,0 8.91,0 c 0.52,0 1.04,0.05 1.55,0.14 0.51,0.09 1.02,0.22 1.5,0.4 0.49,0.17 0.96,0.4 1.41,0.65 0.45,0.26 0.88,0.56 1.27,0.9 0.4,0.33 0.77,0.7 1.1,1.09 0.33,0.4 0.64,0.83 0.89,1.28 0.26,0.44 0.48,0.92 0.66,1.41 0.18,0.48 0.31,0.99 0.4,1.5 0.09,0.5 0.12,1.29 0.14,1.54 0.02,0.26 0.02,-0.25 0,0"
       stroke="#1e1e1e"
       stroke-width="2"
       fill="none"
       id="path120" />
  </g>
  <g
     stroke-linecap="round"
     transform="matrix(0.61879528,0,0,0.61879528,556.0294,270.12139)"
     id="g122">
    <path
       d="m 17.83,8.91 c 0,0.52 -0.05,1.04 -0.14,1.55 -0.09,0.51 -0.22,1.02 -0.4,1.5 -0.18,0.49 -0.4,0.96 -0.66,1.41 -0.25,0.45 -0.56,0.88 -0.89,1.27 -0.33,0.4 -0.7,0.77 -1.1,1.1 -0.39,0.33 -0.82,0.64 -1.27,0.89 -0.45,0.26 -0.92,0.48 -1.41,0.66 -0.48,0.18 -0.99,0.31 -1.5,0.4 C 9.95,17.78 9.43,17.83 8.91,17.83 8.4,17.83 7.87,17.78 7.37,17.69 6.86,17.6 6.35,17.47 5.87,17.29 5.38,17.11 4.9,16.89 4.46,16.63 4.01,16.38 3.58,16.07 3.18,15.74 2.79,15.41 2.42,15.04 2.09,14.64 1.75,14.25 1.45,13.82 1.19,13.37 0.94,12.92 0.71,12.45 0.54,11.96 0.36,11.48 0.23,10.97 0.14,10.46 0.05,9.95 0,9.43 0,8.91 0,8.4 0.05,7.87 0.14,7.37 0.23,6.86 0.36,6.35 0.54,5.87 0.71,5.38 0.94,4.9 1.19,4.46 1.45,4.01 1.75,3.58 2.09,3.18 2.42,2.79 2.79,2.42 3.18,2.09 3.58,1.75 4.01,1.45 4.46,1.19 4.9,0.94 5.38,0.71 5.87,0.54 6.35,0.36 6.86,0.23 7.37,0.14 7.87,0.05 8.4,0 8.91,0 c 0.52,0 1.04,0.05 1.55,0.14 0.51,0.09 1.02,0.22 1.5,0.4 0.49,0.17 0.96,0.4 1.41,0.65 0.45,0.26 0.88,0.56 1.27,0.9 0.4,0.33 0.77,0.7 1.1,1.09 0.33,0.4 0.64,0.83 0.89,1.28 0.26,0.44 0.48,0.92 0.66,1.41 0.18,0.48 0.31,0.99 0.4,1.5 0.09,0.5 0.12,1.29 0.14,1.54 0.02,0.26 0.02,-0.25 0,0"
       stroke="none"
       stroke-width="0"
       fill="#1e1e1e"
       id="path121" />
    <path
       d="m 17.83,8.91 c 0,0.52 -0.05,1.04 -0.14,1.55 -0.09,0.51 -0.22,1.02 -0.4,1.5 -0.18,0.49 -0.4,0.96 -0.66,1.41 -0.25,0.45 -0.56,0.88 -0.89,1.27 -0.33,0.4 -0.7,0.77 -1.1,1.1 -0.39,0.33 -0.82,0.64 -1.27,0.89 -0.45,0.26 -0.92,0.48 -1.41,0.66 -0.48,0.18 -0.99,0.31 -1.5,0.4 C 9.95,17.78 9.43,17.83 8.91,17.83 8.4,17.83 7.87,17.78 7.37,17.69 6.86,17.6 6.35,17.47 5.87,17.29 5.38,17.11 4.9,16.89 4.46,16.63 4.01,16.38 3.58,16.07 3.18,15.74 2.79,15.41 2.42,15.04 2.09,14.64 1.75,14.25 1.45,13.82 1.19,13.37 0.94,12.92 0.71,12.45 0.54,11.96 0.36,11.48 0.23,10.97 0.14,10.46 0.05,9.95 0,9.43 0,8.91 0,8.4 0.05,7.87 0.14,7.37 0.23,6.86 0.36,6.35 0.54,5.87 0.71,5.38 0.94,4.9 1.19,4.46 1.45,4.01 1.75,3.58 2.09,3.18 2.42,2.79 2.79,2.42 3.18,2.09 3.58,1.75 4.01,1.45 4.46,1.19 4.9,0.94 5.38,0.71 5.87,0.54 6.35,0.36 6.86,0.23 7.37,0.14 7.87,0.05 8.4,0 8.91,0 c 0.52,0 1.04,0.05 1.55,0.14 0.51,0.09 1.02,0.22 1.5,0.4 0.49,0.17 0.96,0.4 1.41,0.65 0.45,0.26 0.88,0.56 1.27,0.9 0.4,0.33 0.77,0.7 1.1,1.09 0.33,0.4 0.64,0.83 0.89,1.28 0.26,0.44 0.48,0.92 0.66,1.41 0.18,0.48 0.31,0.99 0.4,1.5 0.09,0.5 0.12,1.29 0.14,1.54 0.02,0.26 0.02,-0.25 0,0"
       stroke="#1e1e1e"
       stroke-width="2"
       fill="none"
       id="path122" />
  </g>
  <g
     stroke-linecap="round"
     id="g126"
     transform="matrix(0.61879528,0,0,0.61879528,-3.3398437e-6,-3.190918e-6)">
    <g
       transform="translate(1012.2913,191.70143)"
       id="g123">
      <path
         d="M 0,0 C -0.4,80.86 -0.8,161.72 -1.27,255.5 M 0,0 c -0.29,59.06 -0.59,118.12 -1.27,255.5"
         stroke="#1e1e1e"
         stroke-width="2"
         fill="none"
         id="path123" />
    </g>
    <g
       transform="translate(1012.2913,191.70143)"
       id="g125">
      <path
         d="m -1.27,255.5 -6.27,-13.63 12.68,0.07 -6.41,13.56"
         stroke="none"
         stroke-width="0"
         fill="#1e1e1e"
         fill-rule="evenodd"
         id="path124" />
      <path
         d="m -1.27,255.5 c -1.99,-4.31 -3.97,-8.63 -6.27,-13.63 m 6.27,13.63 c -1.45,-3.15 -2.9,-6.3 -6.27,-13.63 m 0,0 c 4.6,0.03 9.2,0.05 12.68,0.07 m -12.68,-0.07 c 3.11,0.02 6.23,0.03 12.68,0.07 m 0,0 c -1.61,3.4 -3.22,6.81 -6.41,13.56 m 6.41,-13.56 c -1.39,2.92 -2.77,5.85 -6.41,13.56 m 0,0 c 0,0 0,0 0,0 m 0,0 c 0,0 0,0 0,0"
         stroke="#1e1e1e"
         stroke-width="2"
         fill="none"
         id="path125" />
    </g>
  </g>
  <mask
     id="mask126" />
</svg>
